<?xml version="1.0" standalone="no"?>
<!DOCTYPE svg PUBLIC "-//W3C//DTD SVG 20010904//EN"
 "http://www.w3.org/TR/2001/REC-SVG-20010904/DTD/svg10.dtd">
<svg version="1.0" xmlns="http://www.w3.org/2000/svg"
 width="480.000000pt" height="303.000000pt" viewBox="0 0 480.000000 303.000000"
 preserveAspectRatio="xMidYMid meet">

<g transform="translate(0.000000,303.000000) scale(0.100000,-0.100000)"
fill="#000000" stroke="none">
<path d="M2010 3006 c-14 -7 -48 -19 -77 -26 -41 -11 -54 -19 -63 -40 -6 -15
-41 -53 -78 -85 -89 -76 -128 -123 -136 -163 -4 -18 -17 -37 -28 -43 -24 -13
-108 -189 -108 -226 0 -14 -8 -73 -17 -130 -17 -105 -17 -106 5 -167 18 -49
20 -68 12 -96 -5 -19 -10 -55 -10 -80 0 -25 -7 -90 -15 -145 -16 -102 -10
-167 19 -204 6 -8 20 -37 31 -65 19 -47 25 -52 68 -65 26 -8 47 -17 47 -21 0
-3 -46 -21 -102 -39 -57 -19 -119 -46 -138 -61 -48 -38 -82 -134 -120 -340
-40 -212 -38 -205 -58 -187 -10 8 -39 18 -65 21 -38 6 -57 16 -92 49 -38 37
-44 49 -50 99 -9 70 1 147 20 154 7 3 22 1 32 -4 24 -13 44 2 71 55 19 35 60
182 79 276 7 34 -20 67 -53 67 l-23 0 26 93 c22 81 25 106 21 212 -5 111 -7
125 -40 195 -19 41 -49 93 -67 114 -59 74 -165 157 -256 203 -88 44 -91 45
-165 39 -129 -9 -242 -49 -334 -117 -45 -32 -102 -82 -127 -111 -39 -46 -51
-70 -82 -175 -20 -67 -37 -139 -37 -160 0 -21 -3 -61 -6 -90 -6 -46 -9 -52
-34 -56 -36 -8 -40 -34 -40 -248 0 -185 5 -199 68 -199 32 0 32 -1 32 -49 0
-27 4 -60 9 -73 4 -13 11 -35 15 -50 l6 -28 -57 0 c-101 -1 -93 45 -93 -534
l0 -506 2400 0 2400 0 0 663 0 662 -125 125 -125 124 24 26 c36 39 66 105 66
148 0 25 21 86 61 178 l62 139 1 165 c1 159 0 167 -27 230 -32 76 -101 151
-195 212 -54 35 -82 45 -180 65 -98 19 -135 22 -232 17 -105 -6 -123 -10 -205
-46 -68 -29 -108 -55 -163 -104 -107 -98 -278 -311 -309 -387 -14 -34 -37 -78
-52 -97 -89 -115 -117 -198 -125 -375 -3 -77 -9 -186 -12 -242 l-6 -103 -28
38 c-14 20 -34 43 -43 51 -24 19 -22 25 21 46 l37 19 -32 5 -33 6 19 31 c16
26 18 42 12 95 -4 35 -12 74 -19 86 -16 29 -15 43 3 43 13 0 14 4 5 21 -9 15
-8 31 4 66 22 64 21 66 -24 93 -38 23 -41 28 -37 62 4 31 0 41 -33 73 -26 25
-43 55 -55 96 -16 51 -24 63 -62 87 -42 26 -43 28 -43 81 0 41 -6 61 -24 85
-13 17 -33 51 -46 76 -26 50 -56 94 -113 159 -21 25 -59 84 -84 132 l-47 86
-122 42 -121 41 -179 0 c-129 -1 -186 -5 -204 -14z m-254 -1496 c31 0 34 -3
34 -30 0 -32 -2 -33 -48 -24 -18 4 -34 15 -41 30 -15 33 -14 37 5 30 9 -3 31
-6 50 -6z"/>
</g>
</svg>
